<?xml version="1.0" encoding="utf-8"?>
<!-- Generator: Adobe Illustrator 23.0.1, SVG Export Plug-In . SVG Version: 6.00 Build 0)  -->
<svg version="1.1" id="Layer_1" xmlns="http://www.w3.org/2000/svg" xmlns:xlink="http://www.w3.org/1999/xlink" x="0px" y="0px"
	 viewBox="0 0 841.89 595.28" style="enable-background:new 0 0 841.89 595.28;" xml:space="preserve">
<style type="text/css">
	.st0{fill:#C4A681;}
</style>
<g>
	<g>
		<g>
			<g>
				<path class="st0" d="M505.34,296.86h154.14c0.62,0,1.14,0.51,1.14,1.13c0,0.62-0.52,1.12-1.14,1.12H505.34
					c-0.62,0-1.13-0.51-1.13-1.12C504.2,297.36,504.71,296.86,505.34,296.86z"/>
			</g>
			<g>
				<g>
					<path class="st0" d="M663.57,297.99c0-1.48,1.2-2.68,2.68-2.68c1.47,0,2.67,1.19,2.67,2.68c0,1.47-1.2,2.67-2.67,2.67
						C664.77,300.65,663.57,299.46,663.57,297.99z"/>
					<path class="st0" d="M670.76,297.99c0-2.09,1.69-3.78,3.78-3.78c2.08,0,3.77,1.69,3.77,3.78c0,2.08-1.69,3.77-3.77,3.77
						C672.45,301.77,670.76,300.07,670.76,297.99z"/>
				</g>
				<g>
					<path class="st0" d="M495.88,297.99c0-1.48,1.2-2.68,2.68-2.68c1.47,0,2.67,1.19,2.67,2.68c0,1.47-1.2,2.67-2.67,2.67
						C497.08,300.65,495.88,299.46,495.88,297.99z"/>
					<path class="st0" d="M486.6,297.99c0-2.09,1.69-3.78,3.77-3.78c2.09,0,3.78,1.69,3.78,3.78c0,2.08-1.69,3.77-3.78,3.77
						C488.29,301.77,486.6,300.07,486.6,297.99z"/>
				</g>
			</g>
		</g>
		<g>
			<g>
				<path class="st0" d="M181.69,296.86h118.82c0.62,0,1.13,0.51,1.13,1.13c0,0.62-0.51,1.12-1.13,1.12H181.69
					c-0.63,0-1.14-0.51-1.14-1.12C180.55,297.36,181.06,296.86,181.69,296.86z"/>
			</g>
			<g>
				<g>
					<path class="st0" d="M304.61,297.99c0-1.48,1.2-2.68,2.67-2.68c1.48,0,2.67,1.19,2.67,2.68c0,1.47-1.19,2.67-2.67,2.67
						C305.81,300.65,304.61,299.46,304.61,297.99z"/>
					<path class="st0" d="M311.8,297.99c0-2.09,1.68-3.78,3.77-3.78c2.08,0,3.78,1.69,3.78,3.78c0,2.08-1.7,3.77-3.78,3.77
						C313.48,301.77,311.8,300.07,311.8,297.99z"/>
				</g>
				<g>
					<path class="st0" d="M172.24,297.99c0-1.48,1.19-2.68,2.67-2.68c1.47,0,2.67,1.19,2.67,2.68c0,1.47-1.2,2.67-2.67,2.67
						C173.44,300.65,172.24,299.46,172.24,297.99z"/>
					<path class="st0" d="M162.96,297.99c0-2.09,1.68-3.78,3.77-3.78c2.08,0,3.77,1.69,3.77,3.78c0,2.08-1.69,3.77-3.77,3.77
						C164.64,301.77,162.96,300.07,162.96,297.99z"/>
				</g>
			</g>
		</g>
	</g>
	<g>
		<path class="st0" d="M400.12,280.43c-1.7,2.94-3.65,5.96-5.55,9.15c-3.2,1.9-6.22,3.85-9.16,5.55c-1.73,1.03-3.46,2-5.18,2.85
			c1.72,0.85,3.45,1.81,5.18,2.85c2.95,1.7,5.96,3.65,9.16,5.55c1.9,3.2,3.85,6.21,5.55,9.16c1.04,1.73,2,3.46,2.85,5.19
			c0.86-1.72,1.82-3.46,2.86-5.19c1.7-2.95,3.65-5.96,5.55-9.16c3.2-1.9,6.21-3.84,9.16-5.55c1.73-1.04,3.46-2,5.19-2.85
			c-1.73-0.85-3.46-1.82-5.19-2.85c-2.95-1.7-5.96-3.65-9.16-5.55c-1.9-3.2-3.85-6.22-5.55-9.15c-1.04-1.74-2-3.47-2.86-5.2
			C402.12,276.96,401.16,278.7,400.12,280.43z M416.39,297.99c-2.88,1.53-5.76,3.18-8.67,4.74c-1.56,2.92-3.21,5.79-4.74,8.67
			c-1.53-2.87-3.17-5.75-4.73-8.67c-2.92-1.56-5.79-3.21-8.67-4.74c2.88-1.53,5.75-3.18,8.67-4.74c1.56-2.92,3.21-5.79,4.73-8.67
			c1.54,2.88,3.18,5.75,4.74,8.67C410.63,294.8,413.5,296.46,416.39,297.99z"/>
		<path class="st0" d="M324.66,297.99c-1.06-1-1.8-2.22-2.08-3.43c-0.51-1.94-0.15-3.67,0.41-4.89c1.27-2.52,3.07-2.67,2.96-2.73
			c0.09,0.02-1.56,0.65-2.19,3.01c-0.28,1.14-0.27,2.65,0.39,4.08c0.62,1.41,2,2.56,3.82,3.06c1.78,0.52,3.98,0.42,5.97-0.36
			c2.04-0.79,4-2.23,5.9-4.04c1.91-1.79,3.77-3.97,6.06-6.11c2.25-2.11,5.09-4.28,8.64-5.26c3.47-0.98,7.34-0.69,10.27,1.41
			c2.79,2.08,4.2,5.16,4,8.16c-0.09,1.5-0.68,2.92-1.51,3.98c-0.83,1.05-1.85,1.77-2.86,2.22c-2.03,0.91-4.08,0.85-5.63,0.33
			c-3.11-1.15-4.19-3.27-4.71-4.44c-0.5-1.25-0.48-1.87-0.48-1.87s0.32,0.54,1.17,1.42c0.83,0.84,2.38,2.13,4.6,2.32
			c1.06,0.08,2.3-0.19,3.34-0.93c1.05-0.74,1.74-1.86,1.63-3.16c-0.04-1.3-0.98-2.96-2.43-3.87c-1.37-0.88-3.62-1.15-5.98-0.47
			c-4.8,1.28-8.62,6.01-13.21,9.67c-0.87,0.69-1.78,1.35-2.74,1.93c0.95,0.59,1.87,1.24,2.74,1.93c4.59,3.67,8.41,8.39,13.21,9.67
			c2.36,0.68,4.61,0.41,5.98-0.47c1.44-0.91,2.38-2.59,2.43-3.88c0.1-1.3-0.58-2.41-1.63-3.16c-1.05-0.74-2.28-1.01-3.34-0.94
			c-2.22,0.2-3.77,1.49-4.6,2.32c-0.85,0.88-1.17,1.43-1.17,1.43s-0.02-0.62,0.48-1.88c0.52-1.17,1.6-3.28,4.71-4.43
			c1.55-0.53,3.6-0.59,5.63,0.32c1.01,0.45,2.04,1.18,2.86,2.23c0.83,1.05,1.42,2.47,1.51,3.97c0.2,3.01-1.21,6.09-4,8.16
			c-2.92,2.09-6.79,2.39-10.27,1.41c-3.55-0.98-6.39-3.14-8.64-5.26c-2.29-2.15-4.14-4.33-6.06-6.11c-1.9-1.81-3.86-3.25-5.9-4.04
			c-2-0.78-4.19-0.88-5.97-0.37c-1.81,0.5-3.19,1.66-3.82,3.07c-0.66,1.43-0.66,2.93-0.39,4.08c0.63,2.36,2.28,2.99,2.19,3.01
			c0.11-0.06-1.69-0.21-2.96-2.73c-0.56-1.22-0.92-2.95-0.41-4.9C322.86,300.2,323.59,298.98,324.66,297.99z"/>
		<path class="st0" d="M481.29,297.99c1.06,0.99,1.8,2.22,2.09,3.43c0.51,1.95,0.15,3.68-0.41,4.9c-1.27,2.52-3.07,2.67-2.96,2.73
			c-0.1-0.02,1.56-0.65,2.18-3.01c0.27-1.14,0.27-2.65-0.39-4.08c-0.62-1.41-2-2.56-3.81-3.07c-1.79-0.52-3.99-0.41-5.98,0.37
			c-2.04,0.79-4,2.23-5.9,4.04c-1.91,1.78-3.77,3.97-6.05,6.11c-2.25,2.11-5.09,4.27-8.64,5.26c-3.47,0.98-7.34,0.69-10.27-1.41
			c-2.79-2.07-4.2-5.16-4-8.16c0.09-1.5,0.68-2.92,1.5-3.97c0.83-1.05,1.85-1.78,2.87-2.23c2.03-0.91,4.07-0.85,5.62-0.32
			c3.11,1.15,4.19,3.27,4.72,4.43c0.5,1.25,0.47,1.88,0.47,1.88s-0.31-0.54-1.17-1.43c-0.83-0.84-2.38-2.12-4.6-2.32
			c-1.05-0.07-2.3,0.2-3.34,0.94c-1.06,0.75-1.74,1.86-1.63,3.16c0.04,1.3,0.98,2.97,2.42,3.88c1.38,0.87,3.63,1.14,5.99,0.47
			c4.8-1.28,8.62-6,13.21-9.67c0.87-0.69,1.78-1.34,2.74-1.93c-0.96-0.59-1.87-1.24-2.74-1.93c-4.59-3.66-8.41-8.39-13.21-9.67
			c-2.36-0.67-4.61-0.4-5.99,0.47c-1.44,0.91-2.38,2.58-2.42,3.87c-0.11,1.31,0.57,2.42,1.63,3.16c1.05,0.74,2.29,1.02,3.34,0.93
			c2.22-0.19,3.77-1.48,4.6-2.32c0.85-0.88,1.17-1.42,1.17-1.42s0.03,0.62-0.47,1.87c-0.52,1.17-1.61,3.29-4.72,4.44
			c-1.55,0.52-3.59,0.59-5.62-0.33c-1.02-0.45-2.04-1.18-2.87-2.22c-0.82-1.05-1.41-2.47-1.5-3.98c-0.2-3,1.22-6.08,4-8.16
			c2.93-2.09,6.79-2.39,10.27-1.41c3.55,0.99,6.39,3.15,8.64,5.26c2.29,2.14,4.15,4.32,6.05,6.11c1.9,1.8,3.86,3.25,5.9,4.04
			c1.99,0.78,4.18,0.88,5.98,0.36c1.81-0.5,3.19-1.66,3.81-3.06c0.66-1.43,0.66-2.93,0.39-4.08c-0.63-2.36-2.28-2.99-2.18-3.01
			c-0.11,0.06,1.69,0.21,2.96,2.73c0.56,1.22,0.92,2.95,0.41,4.89C483.09,295.77,482.35,296.99,481.29,297.99z"/>
		<path class="st0" d="M369.27,297.98c1.21-0.68,2.38-1.51,3.37-2.46c2.64-2.37,4.45-5.15,5.56-6.16c2.17-2.02,5.78-3.73,7.12-2.45
			c1.31,1.25-0.13,5-2.62,7.31c-1.03,0.94-3.68,2.58-6.87,3.77c3.19,1.18,5.85,2.82,6.87,3.77c2.48,2.31,3.93,6.05,2.62,7.3
			c-1.34,1.27-4.95-0.43-7.12-2.45c-1.11-1.01-2.92-3.79-5.56-6.17C371.65,299.51,370.48,298.67,369.27,297.98z"/>
		<path class="st0" d="M436.68,297.99c-1.21,0.67-2.38,1.51-3.38,2.45c-2.64,2.37-4.45,5.16-5.56,6.17
			c-2.18,2.01-5.79,3.72-7.12,2.45c-1.31-1.25,0.13-4.99,2.62-7.3c1.02-0.95,3.68-2.58,6.88-3.77c-3.2-1.19-5.85-2.82-6.88-3.77
			c-2.48-2.31-3.93-6.05-2.62-7.31c1.33-1.27,4.94,0.43,7.12,2.45c1.11,1.01,2.92,3.79,5.56,6.16
			C434.3,296.48,435.47,297.3,436.68,297.99z"/>
		<path class="st0" d="M412.42,288.55c-1.03-2.03-2.53-5.52-3.48-6.84c1.07,1.44,3.53,3.65,5.11,5.21c1.56,1.57,3.78,4.04,5.22,5.11
			C417.94,291.08,414.45,289.58,412.42,288.55z"/>
		<path class="st0" d="M393.53,288.55c-2.03,1.03-5.52,2.53-6.84,3.48c1.44-1.07,3.66-3.54,5.21-5.11c1.58-1.56,4.05-3.78,5.11-5.21
			C396.06,283.02,394.56,286.52,393.53,288.55z"/>
		<path class="st0" d="M393.53,307.43c1.03,2.03,2.53,5.52,3.48,6.85c-1.06-1.44-3.53-3.65-5.11-5.22
			c-1.55-1.57-3.77-4.04-5.21-5.11C388.01,304.9,391.5,306.4,393.53,307.43z"/>
		<path class="st0" d="M412.42,307.43c2.03-1.03,5.52-2.53,6.85-3.48c-1.44,1.07-3.66,3.54-5.22,5.11
			c-1.58,1.56-4.04,3.78-5.11,5.22C409.89,312.95,411.39,309.46,412.42,307.43z"/>
		<path class="st0" d="M432.2,309.17c-0.73-0.05-1.09-1.93-0.53-3.39c0.26-0.72,1.26-2.23,2.56-3.44c1.28-1.25,2.81-2.16,3.58-2.71
			c-0.9,0.67-1.96,2.12-2.56,3.59c-0.65,1.45-0.87,2.87-1.08,3.47C433.71,307.85,432.93,309.24,432.2,309.17z"/>
		<path class="st0" d="M373.74,286.8c0.73,0.06,1.09,1.93,0.53,3.4c-0.26,0.73-1.26,2.23-2.56,3.45c-1.29,1.25-2.81,2.15-3.59,2.71
			c0.91-0.68,1.96-2.12,2.57-3.59c0.65-1.46,0.88-2.87,1.09-3.46C372.24,288.14,373.02,286.73,373.74,286.8z"/>
		<path class="st0" d="M432.2,286.8c-0.73,0.06-1.09,1.93-0.53,3.4c0.26,0.73,1.26,2.23,2.56,3.45c1.28,1.25,2.81,2.15,3.58,2.71
			c-0.9-0.68-1.96-2.12-2.56-3.59c-0.65-1.46-0.87-2.87-1.08-3.46C433.71,288.14,432.93,286.73,432.2,286.8z"/>
		<path class="st0" d="M373.74,309.17c0.73-0.05,1.09-1.93,0.53-3.39c-0.26-0.72-1.26-2.23-2.56-3.44
			c-1.29-1.25-2.81-2.16-3.59-2.71c0.91,0.67,1.96,2.12,2.57,3.59c0.65,1.45,0.88,2.87,1.09,3.47
			C372.24,307.85,373.02,309.24,373.74,309.17z"/>
	</g>
</g>
</svg>
